<?xml version="1.0" standalone="no"?>
<!DOCTYPE svg PUBLIC "-//W3C//DTD SVG 20010904//EN"
 "http://www.w3.org/TR/2001/REC-SVG-20010904/DTD/svg10.dtd">
<svg version="1.0" xmlns="http://www.w3.org/2000/svg"
 width="700.000000pt" height="700.000000pt" viewBox="0 0 700.000000 700.000000"
 preserveAspectRatio="xMidYMid meet">
<metadata>
Created by potrace 1.14, written by Peter Selinger 2001-2017
</metadata>
<g transform="translate(0.000000,700.000000) scale(0.100000,-0.100000)"
fill="#000000" stroke="none">
<path d="M2626 6411 c-1 -3 -2 -365 -2 -803 l1 -797 438 -437 437 -437 438
437 437 437 0 800 c0 525 -3 800 -10 801 -31 4 -1736 4 -1739 -1z"/>
<path d="M586 4370 c-2 -3 -3 -396 -2 -875 l1 -870 802 0 802 0 437 437 437
438 -437 437 -437 438 -801 0 c-440 0 -801 -2 -802 -5z"/>
<path d="M4812 4368 c-9 -4 -210 -201 -446 -437 l-429 -431 437 -438 438 -437
791 -1 c436 0 797 1 803 3 11 4 16 1742 5 1744 -25 5 -1586 2 -1599 -3z"/>
<path d="M3060 2624 l-435 -435 0 -802 0 -802 875 0 875 0 0 802 0 801 -425
426 c-234 235 -432 431 -440 436 -12 6 -111 -87 -450 -426z"/>
</g>
</svg>
